<?xml version="1.0" encoding="UTF-8"?>
<svg id="Layer_1" data-name="Layer 1" xmlns="http://www.w3.org/2000/svg" version="1.1" xmlns:xlink="http://www.w3.org/1999/xlink" viewBox="0 0 1069 1080">
  <defs>
    <style>
      .cls-1 {
        opacity: .7;
      }

      .cls-1, .cls-2, .cls-3, .cls-4, .cls-5, .cls-6, .cls-7, .cls-8, .cls-9, .cls-10, .cls-11, .cls-12, .cls-13, .cls-14, .cls-15, .cls-16, .cls-17, .cls-18, .cls-19, .cls-20, .cls-21, .cls-22 {
        stroke-width: 0px;
      }

      .cls-1, .cls-16 {
        fill: #a1c2ff;
      }

      .cls-23 {
        stroke: #a1c2ff;
        stroke-width: 2.1px;
      }

      .cls-23, .cls-24, .cls-25, .cls-26, .cls-27, .cls-11, .cls-28, .cls-29, .cls-30, .cls-31, .cls-32 {
        fill: none;
      }

      .cls-23, .cls-24, .cls-25, .cls-26, .cls-27, .cls-28, .cls-29, .cls-30, .cls-31, .cls-32 {
        stroke-miterlimit: 10;
      }

      .cls-23, .cls-16 {
        opacity: .4;
      }

      .cls-2 {
        fill: url(#linear-gradient);
      }

      .cls-3 {
        fill: #e6f4ff;
      }

      .cls-4 {
        fill: #2b3554;
      }

      .cls-24 {
        stroke: #a6d0f4;
      }

      .cls-24, .cls-27 {
        stroke-width: 2px;
      }

      .cls-5 {
        fill: #f9fbfc;
      }

      .cls-6 {
        fill: #ff7759;
      }

      .cls-25 {
        stroke: #2a2e59;
      }

      .cls-25, .cls-29, .cls-30 {
        stroke-width: 2.5px;
      }

      .cls-26 {
        stroke: #bfd9ff;
      }

      .cls-26, .cls-28 {
        stroke-width: 4.2px;
      }

      .cls-7 {
        fill: #73a5ff;
      }

      .cls-8 {
        fill: #bfd9ff;
      }

      .cls-9 {
        fill: #8182ee;
      }

      .cls-10 {
        fill: #6060e7;
      }

      .cls-27 {
        stroke: #663136;
      }

      .cls-33 {
        clip-path: url(#clippath-1);
      }

      .cls-12 {
        fill: #7e3636;
      }

      .cls-28 {
        stroke: #fff;
      }

      .cls-13 {
        fill: #ff8d02;
      }

      .cls-14 {
        fill: #eb7754;
      }

      .cls-15 {
        fill: #2b3f63;
      }

      .cls-34 {
        clip-path: url(#clippath);
      }

      .cls-29 {
        stroke: #6060e7;
      }

      .cls-17 {
        fill: #94c3ff;
      }

      .cls-18 {
        fill: #16142a;
      }

      .cls-19 {
        fill: #fff;
      }

      .cls-20 {
        fill: #4385ff;
      }

      .cls-30 {
        stroke: #e66657;
      }

      .cls-21 {
        fill: #4361c4;
      }

      .cls-31 {
        stroke: #4361c4;
        stroke-width: 1.1px;
      }

      .cls-22 {
        fill: #ff8d68;
      }

      .cls-32 {
        stroke: #505e83;
        stroke-width: 2px;
      }
    </style>
    <linearGradient id="linear-gradient" x1="297.2" y1="451.6" x2="1015" y2="451.6" gradientUnits="userSpaceOnUse">
      <stop offset="0" stop-color="#fff" stop-opacity=".2"/>
      <stop offset="1" stop-color="#fff" stop-opacity=".7"/>
    </linearGradient>
    <clipPath id="clippath">
      <path class="cls-11" d="M853.8,491.4c-13.1,32.5-50.1,58.9-82.6,58.9s-48.2-26.4-35.1-58.9c13.1-32.5,50.1-58.9,82.6-58.9s48.2,26.4,35.1,58.9Z"/>
    </clipPath>
    <clipPath id="clippath-1">
      <path class="cls-11" d="M772.8,687.5c-13.4,33.2-51.2,60.2-84.5,60.2s-49.3-26.9-35.9-60.2c13.4-33.2,51.2-60.2,84.5-60.2s49.3,26.9,35.9,60.2Z"/>
    </clipPath>
  </defs>
  <path class="cls-26" d="M230.5,447.4c31.8-140,177.4-224,314.1-180,2.7.9,5.5,1.8,8.3,2.8,178.6,61.4,120,242.9,209.4,298.7,89.3,55.8,153.5,136.8,114.4,242.9-39.1,106.1-276.3,206.6-463.4,92.1-147-90-223.3-278.2-182.8-456.4Z"/>
  <circle class="cls-26" cx="157.8" cy="263.2" r="115.8" transform="translate(-127 377.5) rotate(-80.9)"/>
  <g>
    <path class="cls-2" d="M714.9,786.6h-405.2c-9.1,0-15.2-9.4-11.5-17.7L585.8,124.1c2-4.5,6.5-7.4,11.5-7.4h405.2c9.1,0,15.2,9.4,11.5,17.7l-287.5,644.8c-2,4.5-6.5,7.4-11.5,7.4Z"/>
    <path class="cls-19" d="M837.7,331.7L968.5,38.5c3.2-7.1-2-15.1-9.8-15.1h-366.9c-13.6,0-26,8-31.5,20.4l-132.7,297.7c-3.2,7.1,2,15.1,9.8,15.1h362c16.6,0,31.6-9.8,38.4-24.9Z"/>
    <path class="cls-28" d="M790.3,532.7l130.8-293.3c3.2-7.1-2-15.1-9.8-15.1h-366.9c-13.6,0-26,8-31.5,20.4l-132.7,297.7c-3.2,7.1,2,15.1,9.8,15.1h362c16.6,0,31.6-9.8,38.4-24.9Z"/>
    <polyline class="cls-23" points="624 429.1 640.8 429.1 595.7 517 323.6 517 334.6 495.6"/>
    <g>
      <g>
        <path class="cls-3" d="M686.7,138.7c-11.3,39.6-52.6,71.6-92.2,71.6s-62.4-32.1-51.1-71.6c11.3-39.6,52.6-71.6,92.2-71.6s62.4,32.1,51.1,71.6Z"/>
        <path class="cls-17" d="M678.3,138.7c-10,34.9-46.4,63.2-81.3,63.2s-55.1-28.3-45.1-63.2c10-34.9,46.4-63.2,81.3-63.2s55.1,28.3,45.1,63.2Z"/>
      </g>
      <g>
        <g>
          <path class="cls-21" d="M616.2,151.3s-33.2,5.5-47.4,11.1c-9.6,5.8-11.2,10.4-13.5,17.3,0,0,0,0,0,0,7.7,13.5,22.4,22.1,41.6,22.1s50.3-14.3,66.6-35.1c-8.9-13-47.3-15.5-47.3-15.5Z"/>
          <path class="cls-22" d="M604.6,137.2l-5.7,24.2c-.7,3,.8,5.6,3.7,6,4.5.7,11.6.7,19.2-4.2,2.3-1.5,3.8-4,4-6.3.8-11.3,3.1-34.4,3.1-34.4l-24.3,14.7Z"/>
          <path class="cls-22" d="M599.4,111.5s-15.6,31.6-12.6,40.1c3.5,5.8,34.9-7.2,40-15.7,5.1-8.5,16.9-23.8,7.7-33.4-9.2-9.6-23.4-6.3-35.2,9Z"/>
        </g>
        <path class="cls-12" d="M599.4,111.5s-2.7-11.2,6.7-17.7c9.4-6.6,21.6-5.3,25.9,1.3,4.4,6.6,4.7,7.6,4.7,7.6,0,0,4.6,1,6.2,5.9,1.5,4.9-8.3,17.4-12.3,21-4,3.6-3.2,3.7-3.2,3.7l-1.3-1.7s.8-9.5,2.7-15.1c.5-3-2.9-7.2-8.8-8.2-6-1-8.1,4.6-20.6,3.3Z"/>
        <path class="cls-22" d="M629.8,125.9s2.2-4,6-2.9c3.8,1.3-3.8,13.3-7.9,12.5-3.9-1,1.9-9.6,1.9-9.6Z"/>
        <path class="cls-19" d="M626,152.3s-8.3,9.2-16.5,11.8c-1.4.4-3.6,3.3-3.6,3.3l-1.5-3.9s-5.6-3.3-4-9l-1.1.9-3,7.4s-2.2,7-2.1,9.6l7.5-4.2s4.6,1.5,8.3.2c0,0,1.6,5.3,3,5.7,1.4.4,12.8-10.3,14.5-14,1.9-3.7,1.5-7.4,1.5-7.4l-2.9-.4Z"/>
      </g>
    </g>
    <g>
      <path class="cls-16" d="M866.6,166.2h-158.9c-4.9,0-7.4-4-5.6-8.8l22.5-61.8c1.8-4.9,7.2-8.8,12-8.8h158.9c4.9,0,7.4,4,5.6,8.8l-22.5,61.8c-1.8,4.9-7.2,8.8-12,8.8Z"/>
      <polygon class="cls-17" points="875.8 114.7 739 114.7 741.4 108.1 878.2 108.1 875.8 114.7"/>
      <polygon class="cls-17" points="815.8 130.1 733.3 130.1 735.8 123.5 818.2 123.5 815.8 130.1"/>
      <polygon class="cls-17" points="749.6 144.1 728.3 144.1 730.7 137.5 752 137.5 749.6 144.1"/>
    </g>
    <g>
      <path class="cls-17" d="M715.1,194.6c-2.2,5.5-8.5,9.9-14,9.9s-8.1-4.5-5.9-9.9c2.2-5.5,8.5-9.9,14-9.9s8.1,4.5,5.9,9.9Z"/>
      <path class="cls-17" d="M749.6,194.6c-2.2,5.5-8.5,9.9-14,9.9s-8.1-4.5-5.9-9.9,8.5-9.9,14-9.9,8.1,4.5,5.9,9.9Z"/>
      <path class="cls-17" d="M784.2,194.6c-2.2,5.5-8.5,9.9-14,9.9s-8.1-4.5-5.9-9.9,8.5-9.9,14-9.9,8.1,4.5,5.9,9.9Z"/>
      <path class="cls-13" d="M818.7,194.6c-2.2,5.5-8.5,9.9-14,9.9s-8.1-4.5-5.9-9.9,8.5-9.9,14-9.9,8.1,4.5,5.9,9.9Z"/>
      <path class="cls-16" d="M853.2,194.6c-2.2,5.5-8.5,9.9-14,9.9s-8.1-4.5-5.9-9.9,8.5-9.9,14-9.9,8.1,4.5,5.9,9.9Z"/>
      <g>
        <g>
          <polygon class="cls-16" points="771.2 224.9 727.3 270.4 681.9 288.4 733.4 326.2 785.1 282.1 771.2 224.9"/>
          <polygon class="cls-1" points="760.8 251.3 727.3 270.4 699 288.3 737.4 315.9 773.7 282.7 760.8 251.3"/>
          <polygon class="cls-31" points="771.2 224.9 727.3 270.4 681.9 288.4 733.2 326.6 785.1 282.1 771.2 224.9"/>
          <path class="cls-21" d="M750.6,286.3c-.7,1.8-2.7,3.2-4.5,3.2s-2.6-1.4-1.9-3.2c.7-1.8,2.7-3.2,4.5-3.2s2.6,1.4,1.9,3.2Z"/>
          <polyline class="cls-31" points="707.5 254.9 746.3 285.6 677 289.1"/>
          <polyline class="cls-31" points="730.4 337.2 747.7 285.6 793.3 281"/>
          <line class="cls-31" x1="773.7" y1="218.5" x2="747.7" y2="285.6"/>
        </g>
        <path class="cls-17" d="M711,254.3c-1.2,2.9-4.5,5.3-7.5,5.3s-4.4-2.4-3.2-5.3c1.2-2.9,4.5-5.3,7.5-5.3s4.4,2.4,3.2,5.3Z"/>
        <path class="cls-13" d="M679.6,289.2c-1.2,2.9-4.5,5.3-7.5,5.3s-4.4-2.4-3.2-5.3c1.2-2.9,4.5-5.3,7.5-5.3s4.4,2.4,3.2,5.3Z"/>
        <path class="cls-17" d="M735.4,338c-1.2,2.9-4.5,5.3-7.5,5.3s-4.4-2.4-3.2-5.3c1.2-2.9,4.5-5.3,7.5-5.3s4.4,2.4,3.2,5.3Z"/>
        <path class="cls-17" d="M799.6,281.1c-1.2,2.9-4.5,5.3-7.5,5.3s-4.4-2.4-3.2-5.3c1.2-2.9,4.5-5.3,7.5-5.3s4.4,2.4,3.2,5.3Z"/>
        <path class="cls-13" d="M779.7,216.7c-1.2,2.9-4.5,5.3-7.5,5.3s-4.4-2.4-3.2-5.3c1.2-2.9,4.5-5.3,7.5-5.3s4.4,2.4,3.2,5.3Z"/>
      </g>
    </g>
    <g>
      <polygon class="cls-21" points="658.5 261.2 525.5 261.2 535.6 236.1 668.7 236.1 658.5 261.2"/>
      <polygon class="cls-16" points="578.4 317.9 502.6 317.9 506.9 307.1 582.7 307.1 578.4 317.9"/>
      <polygon class="cls-16" points="567 296.3 511.3 296.3 521.5 271.1 577.2 271.1 567 296.3"/>
    </g>
    <g>
      <path class="cls-19" d="M862.5,564.8l65.1-146c1.6-3.5-1-7.5-4.9-7.5h-182.7c-6.8,0-12.9,4-15.7,10.2l-66.1,148.2c-1.6,3.5,1,7.5,4.9,7.5h180.2c8.3,0,15.7-4.9,19.1-12.4Z"/>
      <g>
        <path class="cls-16" d="M853.8,491.4c-13.1,32.5-50.1,58.9-82.6,58.9s-48.2-26.4-35.1-58.9c13.1-32.5,50.1-58.9,82.6-58.9s48.2,26.4,35.1,58.9Z"/>
        <g class="cls-34">
          <g>
            <path class="cls-20" d="M799.9,497.5s29.6,14.7,32.8,28.2c3.1,13.5-10,49.1-10,49.1h-117.7s19.3-41.7,34.3-51.5c15-9.8,44-17.3,44-17.3l16.7-8.5Z"/>
            <g>
              <g>
                <path class="cls-17" d="M787.7,487.9l-9.2,20c-1.2,2.5-.5,4.8,1.7,5.4,3.4,1,9,1.6,15.9-1.8,2.1-1,3.8-3,4.4-5,2.8-9.5,9.2-28.9,9.2-28.9l-21.9,10.3Z"/>
                <path class="cls-17" d="M788.7,465.8s-18.4,25.3-17.7,32.8c1.6,5.2,28.8-3,34.5-9.7,5.7-6.7,18-18.6,12.6-27.6s-17.1-7.4-29.4,4.5Z"/>
              </g>
              <path class="cls-21" d="M789.5,462.1s-.3.4-.7,1c-1.1,1.8-2.7,5.4,1.8,5.7l5.9.3s9.5-5.4,13.2.3c2.8,5.7-6.3,9.2-5.5,12.1.8,2.9.4,2.2-.9,3.8-1.3,1.6-2.3,4.1-6.6,6-4.3,1.9-7.6,1.6-11.7,3.8-4.1,2.2-11.9-.3-12.8-2.2-1.9-1.6-3,1.9-4.2,4.1-1.2,2.2-5,2.9-1.4,5.7,3.6,2.9,6.3,4.1,12.6.3,6.3-3.8,6.5-3.5,12.8-5.1,6.4-1.6,11.1-4.8,13.5-8.7s3.2-9,5.2-10.9,3.2,0,2.3,2.2,7.8-1.9,9.8-8.6c2.1-6.7-1.6-6.4-1.9-10.2-.4-3.8,4-8.3-.7-11.7-4.6-3.5-9,1-10.6-1.3-1.6-2.2-8.8-2.5-14.6,2.2-5.7,4.8-6.1,11.5-6.1,11.5"/>
              <path class="cls-17" d="M809.8,478.8s2.5-3.2,5.3-1.9c2.8,1.4-5.6,11-8.6,9.9-2.9-1.2,3.3-8,3.3-8Z"/>
              <path class="cls-21" d="M770.3,493.8s2.7-9.8,9.6-11.1c6.9-1.3,10,2.9,9.5,6.4s2.6,5.4,2.6,5.4c0,0-17.3,8.3-21.7-.6Z"/>
            </g>
          </g>
        </g>
      </g>
    </g>
    <path class="cls-19" d="M780.6,761.9l65.1-146c1.6-3.5-1-7.5-4.9-7.5h-182.7c-6.8,0-12.9,4-15.7,10.2l-66.1,148.2c-1.6,3.5,1,7.5,4.9,7.5h180.2c8.3,0,15.7-4.9,19.1-12.4Z"/>
    <g>
      <path class="cls-16" d="M772.8,687.5c-13.4,33.2-51.2,60.2-84.5,60.2s-49.3-26.9-35.9-60.2c13.4-33.2,51.2-60.2,84.5-60.2s49.3,26.9,35.9,60.2Z"/>
      <g class="cls-33">
        <g>
          <path class="cls-21" d="M729.3,670.4s9-4.3,10.2.9c1.2,5.2-2.8,8.9-2.8,8.9,0,0,8.1-2.2,10.3,4.7,2.2,6.9-4.3,10.2-1.6,12.7,2.7,2.5,8.3,7.7.5,16.5-7.8,8.8-19.2,18.8-32.5,12.3-13.2-6.5-9-38-9-38l3.2-9.2,21.8-8.8Z"/>
          <path class="cls-21" d="M720.7,644s-20,1.7-26.3,15.7c-6.3,14,6.2,15,6.2,15l20-30.6Z"/>
          <path class="cls-17" d="M590.9,739l1.3,2.3s15.4,18.4,29.1,30.1h28.5c14.9-13.6,35.2-37.2,35.3-38.1.1-1.4,17.9-20.7,14-28.5-3.9-7.9-9-6.6-9-6.6,0,0-5.8.8-12.3,7.5-6.5,6.7-38.5,56.4-38.5,56.4,0,0-4.1-7.4-11.7-13.1-7.6-5.7-29.7-17.6-29.7-17.6,0,0,1.4-9.6,1.2-11.4-.1-1.8-5.6-10.2-7.3-8.4-1.7,1.8,2.2,9.7,2.2,9.7,0,0-4.3,15.5-3,17.8Z"/>
          <path class="cls-20" d="M662.3,757.5s.8,6.1,2.5,13.9h56.6c1.3-12.8,3.9-38.5,5.5-44.6,2.1-8.2.2-25.6.9-30.4.7-4.8-13-3-13-3l-17.8.3-2.9,1.2c-3.9,1.7-7.5,4.7-9.9,8.2-2.2,3.4-5.5,8.3-9.8,14.8-7,5.3-22.6,14.6-21.4,26.3,1.1,11.7,9.3,13.3,9.3,13.3Z"/>
          <path class="cls-17" d="M702.9,682.9s-15.8,19.6-20.2,44.2c5.2-1.6,20.9-16,30.1-24.8,3.9-3.7,4.3-5.7,3.5-9.5-.4-1.9,1.3-7,3.5-13,1.5-8.2-17,3.1-17,3.1Z"/>
          <path class="cls-17" d="M752.6,762.9s2.5,3.4,6.5,8.5h25.3c-4.9-6.5-8.8-11.7-10-13.5-4.1-6.3-33.1-69.4-50.7-61.6-3.3,1.5-15,11.3-10.2,22.4,4.8,11.1,39.1,44.1,39.1,44.1Z"/>
          <g>
            <path class="cls-17" d="M702.2,657c-2.5,3.1-8.8,11.3-12.5,18.6-3.3,6.3-1,12.1,5,12.7,8.7.9,22-1.2,26.3-6.2,6.5-7.4,20.4-20.5,14.7-30.7-5.5-9.9-18-8.9-31.4,3.2-.8.7-1.6,1.6-2.3,2.4Z"/>
            <path class="cls-21" d="M708.1,650.6s-8.7,14.3,16.1,23.4l3.1,1.4s10.8-8.6,11-17.7c.2-9.1-4.5-12.4-9.3-14.4-4.7-2-17.6,3.9-20.9,7.3Z"/>
          </g>
          <path class="cls-17" d="M723.5,676s6.3-4.3,6.2-.3c0,4-8.9,8.3-9.8,6.6-.9-1.7,3.6-6.3,3.6-6.3Z"/>
        </g>
      </g>
    </g>
    <g>
      <path class="cls-20" d="M582.1,640.9h-201.2c-6.2,0-9.2-5-6.7-11.2l14.3-35.4c2.5-6.2,9.5-11.2,15.7-11.2h201.2c6.2,0,9.2,5,6.7,11.2l-14.3,35.4c-2.5,6.2-9.5,11.2-15.7,11.2Z"/>
      <polygon class="cls-19" points="580.5 614.9 407.3 614.9 410.7 606.5 583.9 606.5 580.5 614.9"/>
    </g>
    <g>
      <g>
        <path class="cls-5" d="M419.4,58h-6.8c-1.2,0-1.8-1-1.3-2.2l2.7-6.8c.5-1.2,1.9-2.2,3.1-2.2h6.8c1.2,0,1.8,1,1.3,2.2l-2.7,6.8c-.5,1.2-1.9,2.2-3.1,2.2Z"/>
        <path class="cls-8" d="M489.2,58h-6.8c-1.2,0-1.8-1-1.3-2.2l2.7-6.8c.5-1.2,1.9-2.2,3.1-2.2h6.8c1.2,0,1.8,1,1.3,2.2l-2.7,6.8c-.5,1.2-1.9,2.2-3.1,2.2Z"/>
      </g>
      <g>
        <path class="cls-8" d="M406.4,90.1h-6.8c-1.2,0-1.8-1-1.3-2.2l2.7-6.8c.5-1.2,1.9-2.2,3.1-2.2h6.8c1.2,0,1.8,1,1.3,2.2l-2.7,6.8c-.5,1.2-1.9,2.2-3.1,2.2Z"/>
        <path class="cls-5" d="M441.3,90.1h-6.8c-1.2,0-1.8-1-1.3-2.2l2.7-6.8c.5-1.2,1.9-2.2,3.1-2.2h6.8c1.2,0,1.8,1,1.3,2.2l-2.7,6.8c-.5,1.2-1.9,2.2-3.1,2.2Z"/>
        <path class="cls-5" d="M476.2,90.1h-6.8c-1.2,0-1.8-1-1.3-2.2l2.7-6.8c.5-1.2,1.9-2.2,3.1-2.2h6.8c1.2,0,1.8,1,1.3,2.2l-2.7,6.8c-.5,1.2-1.9,2.2-3.1,2.2Z"/>
        <path class="cls-5" d="M504.1,90.1h-6.8c-1.2,0-1.8-1-1.3-2.2l2.7-6.8c.5-1.2,1.9-2.2,3.1-2.2h6.8c1.2,0,1.8,1,1.3,2.2l-2.7,6.8c-.5,1.2-1.9,2.2-3.1,2.2Z"/>
      </g>
      <g>
        <path class="cls-5" d="M393.5,122.2h-6.8c-1.2,0-1.8-1-1.3-2.2l2.7-6.8c.5-1.2,1.9-2.2,3.1-2.2h6.8c1.2,0,1.8,1,1.3,2.2l-2.7,6.8c-.5,1.2-1.9,2.2-3.1,2.2Z"/>
        <path class="cls-5" d="M365.6,122.2h-6.8c-1.2,0-1.8-1-1.3-2.2l2.7-6.8c.5-1.2,1.9-2.2,3.1-2.2h6.8c1.2,0,1.8,1,1.3,2.2l-2.7,6.8c-.5,1.2-1.9,2.2-3.1,2.2Z"/>
        <path class="cls-5" d="M428.4,122.2h-6.8c-1.2,0-1.8-1-1.3-2.2l2.7-6.8c.5-1.2,1.9-2.2,3.1-2.2h6.8c1.2,0,1.8,1,1.3,2.2l-2.7,6.8c-.5,1.2-1.9,2.2-3.1,2.2Z"/>
        <path class="cls-8" d="M463.3,122.2h-6.8c-1.2,0-1.8-1-1.3-2.2l2.7-6.8c.5-1.2,1.9-2.2,3.1-2.2h6.8c1.2,0,1.8,1,1.3,2.2l-2.7,6.8c-.5,1.2-1.9,2.2-3.1,2.2Z"/>
      </g>
      <path class="cls-5" d="M380.5,154.3h-6.8c-1.2,0-1.8-1-1.3-2.2l2.7-6.8c.5-1.2,1.9-2.2,3.1-2.2h6.8c1.2,0,1.8,1,1.3,2.2l-2.7,6.8c-.5,1.2-1.9,2.2-3.1,2.2Z"/>
    </g>
    <g>
      <g>
        <path class="cls-20" d="M422.2,688.2h-9.6c-1.7,0-2.5-1.4-1.8-3.1l3.9-9.6c.7-1.7,2.6-3.1,4.3-3.1h9.6c1.7,0,2.5,1.4,1.8,3.1l-3.9,9.6c-.7,1.7-2.6,3.1-4.3,3.1Z"/>
        <path class="cls-20" d="M520.5,688.2h-9.6c-1.7,0-2.5-1.4-1.8-3.1l3.9-9.6c.7-1.7,2.6-3.1,4.3-3.1h9.6c1.7,0,2.5,1.4,1.8,3.1l-3.9,9.6c-.7,1.7-2.6,3.1-4.3,3.1Z"/>
      </g>
      <g>
        <path class="cls-8" d="M403.9,733.4h-9.6c-1.7,0-2.5-1.4-1.8-3.1l3.9-9.6c.7-1.7,2.6-3.1,4.3-3.1h9.6c1.7,0,2.5,1.4,1.8,3.1l-3.9,9.6c-.7,1.7-2.6,3.1-4.3,3.1Z"/>
        <path class="cls-13" d="M453.1,733.4h-9.6c-1.7,0-2.5-1.4-1.8-3.1l3.9-9.6c.7-1.7,2.6-3.1,4.3-3.1h9.6c1.7,0,2.5,1.4,1.8,3.1l-3.9,9.6c-.7,1.7-2.6,3.1-4.3,3.1Z"/>
        <path class="cls-8" d="M502.3,733.4h-9.6c-1.7,0-2.5-1.4-1.8-3.1l3.9-9.6c.7-1.7,2.6-3.1,4.3-3.1h9.6c1.7,0,2.5,1.4,1.8,3.1l-3.9,9.6c-.7,1.7-2.6,3.1-4.3,3.1Z"/>
        <path class="cls-8" d="M541.6,733.4h-9.6c-1.7,0-2.5-1.4-1.8-3.1l3.9-9.6c.7-1.7,2.6-3.1,4.3-3.1h9.6c1.7,0,2.5,1.4,1.8,3.1l-3.9,9.6c-.7,1.7-2.6,3.1-4.3,3.1Z"/>
      </g>
      <g>
        <path class="cls-8" d="M385.6,778.7h-9.6c-1.7,0-2.5-1.4-1.8-3.1l3.9-9.6c.7-1.7,2.6-3.1,4.3-3.1h9.6c1.7,0,2.5,1.4,1.8,3.1l-3.9,9.6c-.7,1.7-2.6,3.1-4.3,3.1Z"/>
        <path class="cls-8" d="M346.3,778.7h-9.6c-1.7,0-2.5-1.4-1.8-3.1l3.9-9.6c.7-1.7,2.6-3.1,4.3-3.1h9.6c1.7,0,2.5,1.4,1.8,3.1l-3.9,9.6c-.7,1.7-2.6,3.1-4.3,3.1Z"/>
        <path class="cls-8" d="M434.8,778.7h-9.6c-1.7,0-2.5-1.4-1.8-3.1l3.9-9.6c.7-1.7,2.6-3.1,4.3-3.1h9.6c1.7,0,2.5,1.4,1.8,3.1l-3.9,9.6c-.7,1.7-2.6,3.1-4.3,3.1Z"/>
        <path class="cls-13" d="M484,778.7h-9.6c-1.7,0-2.5-1.4-1.8-3.1l3.9-9.6c.7-1.7,2.6-3.1,4.3-3.1h9.6c1.7,0,2.5,1.4,1.8,3.1l-3.9,9.6c-.7,1.7-2.6,3.1-4.3,3.1Z"/>
      </g>
      <path class="cls-13" d="M367.3,823.9h-9.6c-1.7,0-2.5-1.4-1.8-3.1l3.9-9.6c.7-1.7,2.6-3.1,4.3-3.1h9.6c1.7,0,2.5,1.4,1.8,3.1l-3.9,9.6c-.7,1.7-2.6,3.1-4.3,3.1Z"/>
    </g>
    <g>
      <polygon class="cls-16" points="589.5 497.7 317.3 497.7 362.3 409.7 634.5 409.7 589.5 497.7"/>
      <g>
        <path class="cls-7" d="M581.5,453.3c-4.9,19.7-24.9,35.8-44.7,35.8s-31.8-16-26.8-35.8c4.9-19.7,24.9-35.8,44.7-35.8s31.8,16,26.8,35.8Z"/>
        <path class="cls-19" d="M536.5,471.5c-1.1,0-2.1-.4-2.8-1.3l-9.2-12.3c-1.3-1.7-.6-4.5,1.6-6.2,2.1-1.7,4.9-1.7,6.2,0l6.9,9.2,24.7-19.8c2.1-1.7,4.9-1.7,6.2,0,1.3,1.7.6,4.5-1.6,6.2l-28.6,22.9c-1.1.9-2.3,1.3-3.4,1.3Z"/>
      </g>
      <g>
        <path class="cls-32" d="M331.2,242.4c0,6.9-5,12.5-11.3,12.5s-11.3-5.6-11.3-12.5,5-12.5,11.3-12.5,11.3,5.6,11.3,12.5Z"/>
        <path class="cls-19" d="M212.9,310s-18,1.2-31.5,19.4c-13.5,18.2,6.1,84.8,64,111.7,37.7,14.8,40.4-18.8,31-42.4-9.4-23.6-36.7-83.2-63.5-88.7Z"/>
        <path class="cls-8" d="M470.2,1023.5c0,8.6-82.6,15.5-184.4,15.5s-184.4-6.9-184.4-15.5,82.6-15.5,184.4-15.5,184.4,6.9,184.4,15.5Z"/>
        <g>
          <path class="cls-18" d="M218.4,973.4s3.9-8.4,18.4-6.1c14.5,2.2,16.2,5,17.9,12.3,1.7,7.3,6.7,15.1,10.1,16.8,3.4,1.7,15.6,10.1,25.7,11.7,10.1,1.7,11.2,7.8,8.9,10.6-2.2,2.8-40.2,5-48.6,3.9,0,0-28.5-.6-35.2-2.8-6.7-2.2,2.2-43.6,2.8-46.4Z"/>
          <path class="cls-18" d="M291.3,973.4s3.9-8.4,18.4-6.1c14.5,2.2,16.2,5,17.9,12.3,1.7,7.3,6.7,15.1,10.1,16.8,3.4,1.7,15.6,10.1,25.7,11.7,10.1,1.7,11.2,7.8,8.9,10.6-2.2,2.8-40.2,5-48.6,3.9,0,0-28.5-.6-35.2-2.8-6.7-2.2,2.2-43.6,2.8-46.4Z"/>
          <path class="cls-4" d="M205,765.2s-4.3-23.1,20.2-30.9c24.4-7.8,29.1,3.5,36.5,24.6,7.4,21.1-6.3,220.5-6.3,220.5,0,0-29.8.7-37-3.6,0,0-19.9-132.3-18.4-164.5,1.5-32.2,5-46.1,5-46.1Z"/>
        </g>
        <path class="cls-6" d="M319.4,250.9s5.7,7.7,5.7,11.8-7.7,4-7.7,4l2-15.8Z"/>
        <path class="cls-22" d="M291.9,172.1s16.5,4.2,25.9,29.6c9.4,25.4,3.1,79.3-3.1,85.7-6.2,6.3-25.2,3.9-51.5-4.8-27.8-9.2-37.2-38.1-42.2-57.1-9.5-36.5,22.2-74.1,70.9-53.4Z"/>
        <path class="cls-22" d="M232.6,312.2l13.4-48.1s26.8-7.8,43.6,10.1l5.6,7.8v31.3s-27.9,5.6-62.6-1.1Z"/>
        <path class="cls-4" d="M195.1,571s-10.1,58.7,0,125.8c10.1,67.1,30.2,73.8,48.6,73.8s23.5-53.7,26.8-77.1c3.4-23.5,16.8-104-8.4-122.4-25.2-18.4-53.7-20.1-67.1,0Z"/>
        <path class="cls-15" d="M265.6,649.8s-20.1-53.7,15.1-77.1c35.2-23.5,62-20.1,70.4,18.4,8.4,38.6,10.1,171-1.7,197.9-11.7,26.8-53.7-15.1-83.8-139.2Z"/>
        <path class="cls-19" d="M225.5,312s3.7-13.2,7.1-14.3c3.4-1.1,44.7-5.6,67.1,7.8,10.1,7.8,8.9,13.4,8.9,13.4,0,0-66.7-12.8-83.1-7Z"/>
        <path class="cls-10" d="M348.4,571s3.4,8.1,1.3,10.8c-2.7,2.7-78.8,29.6-158.9,10.1-1.3,0,2-13.5,2-13.5l155.5-7.4Z"/>
        <path class="cls-9" d="M190.1,449.7c-2.2-15.6-8.9-92.8-6.7-104,2.1-10.4,11-29.7,29.5-35.8,1.3-.4,2.6-.8,4-1.1,0,0,69.3-4.5,118.5,16.8,0,0,16.8,14,20,85.2,0,0-.9,12-3.6,37.6-2.7,25.6,1.3,44.4,5.4,70,4,25.6,12.1,51.2-17.5,56.5-28.3,5.4-106.4,18.8-152.1,5.4-9.4-6.7,4-37.7,4-61.9s-1.4-68.8-1.4-68.8Z"/>
        <path class="cls-15" d="M297.4,768.9s-1.7-23.5,23.5-28.5c25.2-5,28.5,6.7,33.5,28.5,5,21.8-24.8,211.9-24.8,211.9,0,0-32.9,1.9-39.6-3.1,0,0-7.7-131.6-2.7-163.5,5-31.9,10.1-45.3,10.1-45.3Z"/>
        <path class="cls-25" d="M258.8,637.3s23.5,75.5,41.1,112.3"/>
        <path class="cls-25" d="M306.6,764.7s14.3-8.4,28.5,0"/>
        <path class="cls-25" d="M304.1,773.9s11.7-6.7,31.9,7.5"/>
        <path class="cls-25" d="M216.1,754.6s9.2-8.4,30.2.8"/>
        <path class="cls-25" d="M222.8,763s13.4-6.7,26,3.4"/>
        <line class="cls-25" x1="253.8" y1="776.4" x2="248.8" y2="947.5"/>
        <path class="cls-25" d="M323.1,633.1s19,11.2,26.8-6.7"/>
        <path class="cls-25" d="M342.1,635.3s8.9,69.3,6.7,115.1"/>
        <path class="cls-30" d="M284.4,276.3s5.9,15.1,25.6,12.6"/>
        <path class="cls-12" d="M309.7,183.2s9.6,13.1,10.1,20.9c.6,7.8-11.9,15.5-13.7,20.3-1.8,4.8,2.3,10.8.5,13.8-1.8,3-2.4,9.1-2.4,9.1l.6,6.8c.2,2.5-1.5,4.7-3.9,5.2l-1.4.3c-2.1.4-4.1-.7-4.9-2.6-2.1-5.4-6.6-15.5-10.1-16.3-4.8-1.2-9.5,7.2-11.3,11.3-1,2.4-3.5,8.7-5.6,13.8-1.8,4.5-5.9,7.5-10.7,7.8-5.2.4-11.4.6-13.6,0-4.2-1.2-25.6-40.7-26.2-59.8-.6-19.1,12.5-38.2,26.3-44.2,13.7-6,40.6-11.3,66.3,13.7Z"/>
        <path class="cls-29" d="M213,349.1c0,5.4,22.5,86.4,18.9,100.7-3.6,14.3-13.5,114.4-13.5,114.4"/>
        <path class="cls-24" d="M213.1,312.5"/>
        <path class="cls-12" d="M275.3,157.2s13.1.5,17.7-6.1c4.5-6.6,19.2-8.1,29.8,2.5,10.6,10.6,10.1,30.3,1,37.4,0,0,10.6-2,12.1,5.6,1.5,7.6-11.6,19.2-27.3,22.7,0,0-25.2-7.1-32.8-2.5-7.6,4.5-58.6-.5-58.6-.5,0,0-11.1-10.1-8.1-19.2,3-9.1,6.1.5,6.1.5,0,0-2.5-12.6,14.1-30.8,16.7-18.2,39.9-8.1,45.9-9.6Z"/>
        <path class="cls-14" d="M523.2,427.8l35.8,1.5s-1,3.5-6.6,4.5c-5.6,1-26.3,3.5-26.3,3.5l-3-9.6Z"/>
        <path class="cls-22" d="M527.8,435.4s12.1-2,14.6-1.5c2.5.5,5,15.1,5,15.1l-9.6,10.1s-3.5-1.5,0-7.1l2-3.5-14.6-5.6,2.5-7.6Z"/>
        <g>
          <path class="cls-22" d="M493,444l15.1-2s12.6-12.6,15.1-14.1c2.5-1.5,15.1,18.2,16.7,20.7,0,2-7.6,8.6-15.1,9.6-7.6,1-10.1-1-10.1-1l-16.7,6.6-5-19.7Z"/>
          <g>
            <path class="cls-19" d="M335.4,325.7s-33.8-.3-32.8,41.1c1,41.4,71.7,109.1,90.9,117.1,19.2,8.1,101-14.1,108-18.2,7.1-4,5-21.2-6.1-25.2l-83.8-4s-52.5-107.4-76.2-110.7Z"/>
            <path class="cls-24" d="M413,443.1s10.1,10.8,7.4,24.9"/>
            <path class="cls-24" d="M418.4,441.1s16.8,5.4,18.2,23.6"/>
          </g>
        </g>
        <line class="cls-32" x1="331.2" y1="242.4" x2="296.2" y2="242.4"/>
        <path class="cls-6" d="M300.4,246.6s-2.4-10.3-11.1-5.6c-8.7,4.8,1.6,29.4,8.7,27.8,7.1-1.6,4-18.3,2.4-22.2Z"/>
        <path class="cls-27" d="M227.4,198.1s24.2-5.6,41.4,12.6"/>
        <path class="cls-27" d="M230.6,194.4s10.4-11.1,28.3-6.4"/>
        <path class="cls-27" d="M228.2,202.8s7.4.7,12.5,9.1"/>
        <path class="cls-27" d="M301.6,154.7s24.2,7.6,18.7,29.8"/>
      </g>
    </g>
  </g>
</svg>