<?xml version="1.0" encoding="UTF-8"?>
<svg id="Layer_1" data-name="Layer 1" xmlns="http://www.w3.org/2000/svg" version="1.1" viewBox="0 0 8192 689.9">
  <defs>
    <style>
      .cls-1 {
        fill: #010101;
      }

      .cls-1, .cls-2 {
        stroke-width: 0px;
      }

      .cls-2 {
        fill: #2c3390;
      }
    </style>
  </defs>
  <g id="Text">
    <g>
      <path class="cls-2" d="M175.5,500h-67.4V168.5h112.4c9,0,19.2,2.9,30.5,8.8,10.3,5.1,18.9,11.3,25.6,18.4l200.2,207.4v-234.6h67.4v331.5h-112.4c-9,0-19-2.7-29.8-8.2s-19.6-11.8-26.4-18.9l-200.2-207.4v234.6h0Z"/>
      <path class="cls-2" d="M720.8,500c-85.3-2.9-128-29.7-128-80.5v-251.1h401.3v49.4h-257.4v82.4h233.2v49.4h-233.2v72.7c0,8.4,4.3,15.4,13.1,20.9,7.8,4.9,16,7.3,24.7,7.3h219.5v49.4l-161.4,3.4c-6.5,0-43.8-1.2-112-3.4h.2Z"/>
      <path class="cls-2" d="M1313,513.1c-114.4,0-194.9-20.5-241.4-61.6-27.8-24.6-41.7-63.7-41.7-117.3s13.9-92.7,41.7-117.3c46.5-41,127-61.6,241.4-61.6s106.7,4.3,159.5,13.1v49.4c-35.2-9.7-73.7-14.5-115.3-14.5s-95,7.9-122.1,23.8c-35.2,20.7-52.8,56.4-52.8,107.1s17.6,86.4,52.8,107.1c27.2,15.8,67.8,23.8,122.1,23.8s81.1-4.9,115.3-14.5v49.4c-52.7,8.8-105.8,13.1-159.5,13.1v.2-.2Z"/>
    </g>
    <g>
      <path class="cls-1" d="M1664.8,259.1h44.7l78.3,222.9v-222.9h27.2v245.9h-44.7l-78.3-223.8v223.8h-27.2v-245.9Z"/>
      <path class="cls-1" d="M1863.5,259.5h25.9v33h-25.9v-33ZM1863.5,323.1h25.9v181.9h-25.9v-181.9h0Z"/>
      <path class="cls-1" d="M1961.5,344c3.3-7.4,8.4-13.5,15.2-18.2,6.9-4.9,14.6-7.4,23.6-7.4,18.8,0,33.3,7.4,43.7,22.2,10.5,14.8,15.7,35.1,15.7,60.9,0,72.2-19.8,108.4-59.4,108.4s-29.7-8.6-37.9-25.6v82.3h-25.9v-243.4h25.1v21-.2ZM1962.3,418.1c0,46.5,11.6,69.8,34.8,69.8s21.9-6.1,27.4-18.2c5.7-12.2,8.5-31.9,8.5-59.1,0-46.9-11.8-70.3-35.6-70.3s-20.8,5.2-26.6,15.7c-5.7,10.5-8.5,31.2-8.5,62.1h0Z"/>
      <path class="cls-1" d="M2125.4,344c3.3-7.4,8.4-13.5,15.2-18.2,6.9-4.9,14.6-7.4,23.6-7.4,18.8,0,33.3,7.4,43.7,22.2,10.5,14.8,15.7,35.1,15.7,60.9,0,72.2-19.8,108.4-59.4,108.4s-29.7-8.6-37.9-25.6v82.3h-25.9v-243.4h25.1v21-.2ZM2126.2,418.1c0,46.5,11.6,69.8,34.8,69.8s21.9-6.1,27.4-18.2c5.7-12.2,8.5-31.9,8.5-59.1,0-46.9-11.8-70.3-35.6-70.3s-20.8,5.2-26.6,15.7c-5.7,10.5-8.5,31.2-8.5,62.1h0Z"/>
      <path class="cls-1" d="M2257.3,407.4c0-28.9,5.4-50.9,16.3-66.1,11-15.3,27.3-22.9,48.9-22.9s36.7,7.8,47.6,23.2c11,15.4,16.5,37,16.5,65s-5,60.3-14.9,77.5c-9.8,17.2-26,25.7-48.7,25.7s-40-7.9-50.3-23.7c-10.2-15.9-15.4-42.2-15.4-78.8h0ZM2284,415.9c0,25,3,43.3,8.9,54.7,6.1,11.6,15.7,17.2,29,17.2s23.7-6.1,29.3-18.1c5.7-12.1,8.5-30.1,8.5-53.9s-3-46.2-8.9-58-15.6-17.6-29.2-17.6-22.5,5.8-28.6,17.2c-6.1,11.6-9.1,31-9.1,58.3h0v.2Z"/>
      <path class="cls-1" d="M2428.5,505v-181.9h25.1v20.8c11.7-17.1,27.1-25.6,46.2-25.6s25.1,3.9,32.7,11.7c7.7,7.8,11.6,19.7,11.6,35.7v139.3h-25.9v-131.9c0-21.9-8.9-32.8-26.6-32.8s-19.7,3.7-26.7,11c-7,7.4-10.4,16.8-10.4,28.2v125.5h-25.9v.2-.2Z"/>
      <path class="cls-1" d="M2674.6,505v-245.9h122v24.7h-94.7v81.4h88.9v24.7h-88.9v90.6h95.5v24.7h-122.8v-.2Z"/>
      <path class="cls-1" d="M2817.3,505l55.9-93.8-52.7-88.1h26.7l41,65.3,40.6-65.3h26.7l-52.7,88.1,54.7,93.8h-26.7l-43.1-72.5-43.9,72.5h-26.7.2Z"/>
      <path class="cls-1" d="M3008.6,344c3.3-7.4,8.4-13.5,15.2-18.2,6.9-4.9,14.6-7.4,23.6-7.4,18.8,0,33.3,7.4,43.7,22.2,10.5,14.8,15.7,35.1,15.7,60.9,0,72.2-19.8,108.4-59.4,108.4s-29.7-8.6-37.9-25.6v82.3h-25.9v-243.4h25.1v21-.2ZM3009.4,418.1c0,46.5,11.6,69.8,34.8,69.8s21.9-6.1,27.4-18.2c5.7-12.2,8.5-31.9,8.5-59.1,0-46.9-11.8-70.3-35.6-70.3s-20.8,5.2-26.6,15.7c-5.7,10.5-8.5,31.2-8.5,62.1h0Z"/>
      <path class="cls-1" d="M3150.7,505v-181.9h25.1v28.5c9.4-22.2,25.3-33.3,47.7-33.3s4.6,0,6.9.4v25.7c-2.3-.6-5.9-1-10.9-1-13.5,0-24.1,4.5-31.7,13.5-7.5,8.9-11.2,20.9-11.2,35.7v112.3h-25.9Z"/>
      <path class="cls-1" d="M3273.9,415.9v13.6c0,22.8,3.1,38.2,9.1,46.2,6.2,8.1,14.3,12.2,24.3,12.2s17.2-3.2,22.6-9.5c5.3-6.4,8.1-14.9,8.5-25.5,0-3.2,0-6.1.4-8.9h23.6v6.2c0,16.8-4.8,30.9-14.4,42.3-9.5,11.4-23.3,17.2-41.3,17.2-39.6,0-59.4-31.9-59.4-95.7s5.1-52.9,15.2-70c10.1-17.2,24.7-25.7,43.9-25.7s35.3,6.7,44.1,20c8.9,13.4,13.3,39.2,13.3,77.5h-89.9ZM3336.9,394.6c0-21.9-2.8-36.4-8.3-43.5-5.4-7.1-12.5-10.7-21.1-10.7s-20.6,4.2-25.5,12.6-7.6,22.3-8,41.6h62.9Z"/>
      <path class="cls-1" d="M3417.9,450.9c0,11.8,2,21,6.1,27.4,4.2,6.4,12.5,9.6,24.8,9.6,23.3,0,34.9-10.1,34.9-30.4s-2.6-14.4-7.9-18.9c-5.1-4.6-14.3-9.2-27.5-13.9-22.9-8-37.7-16-44.3-24s-9.9-18.1-9.9-30.1c0-17.1,5.1-30.1,15.4-38.9s23.1-13.3,38.7-13.3c37.2,0,55.9,18,55.9,53.8h-24.7c0-10.5-2-18.3-6-23.7s-11.7-8.1-23.2-8.1c-19.6,0-29.4,9.3-29.4,27.8s2.3,12.8,6.7,17.6c4.6,4.8,15.6,10.6,33.1,17.2,20.5,7.9,33.9,15.4,40.2,22.8,6.4,7.2,9.6,16.6,9.6,28.2,0,18.2-5.8,32.1-17.4,41.6-11.6,9.5-26,14.3-43.3,14.3s-31.2-4.5-41.3-13.6c-10-9.2-15.1-21.2-15.1-36.2v-9.1h24.7-.1Z"/>
      <path class="cls-1" d="M3563.4,450.9c0,11.8,2,21,6.1,27.4,4.2,6.4,12.5,9.6,24.8,9.6,23.3,0,34.9-10.1,34.9-30.4s-2.6-14.4-7.9-18.9c-5.1-4.6-14.3-9.2-27.5-13.9-22.9-8-37.7-16-44.3-24s-9.9-18.1-9.9-30.1c0-17.1,5.1-30.1,15.4-38.9s23.1-13.3,38.7-13.3c37.2,0,55.9,18,55.9,53.8h-24.7c0-10.5-2-18.3-6-23.7s-11.7-8.1-23.2-8.1c-19.6,0-29.4,9.3-29.4,27.8s2.3,12.8,6.7,17.6c4.6,4.8,15.6,10.6,33.1,17.2,20.5,7.9,33.9,15.4,40.2,22.8,6.4,7.2,9.6,16.6,9.6,28.2,0,18.2-5.8,32.1-17.4,41.6-11.6,9.5-26,14.3-43.3,14.3s-31.2-4.5-41.3-13.6c-10-9.2-15.1-21.2-15.1-36.2v-9.1h24.7-.1Z"/>
      <path class="cls-1" d="M3776.8,259.1h44.7l78.3,222.9v-222.9h27.2v245.9h-44.7l-78.3-223.8v223.8h-27.2v-245.9Z"/>
      <path class="cls-1" d="M3976.1,505v-245.9h122v24.7h-94.7v81.4h88.9v24.7h-88.9v90.6h95.5v24.7h-122.8v-.2Z"/>
      <path class="cls-1" d="M4253.7,416.7h28l-2.5,29.3c-1.9,19.5-9,35.3-21.3,47.4-12.2,12.1-28,18.1-47.4,18.1s-46.9-9.6-59.1-28.6c-12.1-19.2-18.1-47.4-18.1-84.7v-18.1c0-43,6.3-75,18.9-95.9s32.2-31.3,58.8-31.3,38.5,6.7,51.4,20.1c12.9,13.5,19.4,30.9,19.4,52.2v7h-28c-1.3-36.5-16.1-54.7-44.3-54.7s-26.9,7.4-35.4,22.2c-8.4,14.8-12.6,45.3-12.6,91.4s3.8,55.6,11.4,71.7c7.6,16,19.7,24,36.3,24,25,0,39.2-17,42.7-51.1l1.9-19.1h0Z"/>
      <path class="cls-1" d="M4407.4,259.1h27.2v221.3h99.9v24.7h-127.2v-245.9h.1Z"/>
      <path class="cls-1" d="M4560.8,407.4c0-28.9,5.4-50.9,16.3-66.1,11-15.3,27.3-22.9,48.9-22.9s36.7,7.8,47.6,23.2c11,15.4,16.5,37,16.5,65s-5,60.3-14.9,77.5c-9.8,17.2-26,25.7-48.7,25.7s-40-7.9-50.3-23.7c-10.2-15.9-15.4-42.2-15.4-78.8h0ZM4587.5,415.9c0,25,3,43.3,8.9,54.7,6.1,11.6,15.7,17.2,29,17.2s23.7-6.1,29.3-18.1c5.7-12.1,8.5-30.1,8.5-53.9s-3-46.2-8.9-58-15.6-17.6-29.2-17.6-22.5,5.8-28.6,17.2c-6.1,11.6-9.1,31-9.1,58.3h0v.2Z"/>
      <path class="cls-1" d="M4734,523.2h24.7c2.3,14.4,12.3,21.6,29.8,21.6s20.5-4.2,26.7-12.4,9.3-20.9,9.3-37.9v-12.4c-10,18.3-23.2,27.5-39.6,27.5-39.1,0-58.6-32.2-58.6-96.5s4.8-52,14.4-69.2c9.8-17.2,23.9-25.7,42.7-25.7s33.3,8.9,41.8,26.5v-21.6h25.1v161.8c0,54.5-21.2,81.8-63.8,81.8s-28.4-3.9-37.3-11.6c-8.8-7.8-13.9-18.4-15.4-32.1h0l.2.2ZM4753.1,413.4c0,49.7,11.2,74.4,33.6,74.4s38.6-23.3,38.6-69.8-3-47.7-8.9-59.7c-5.8-12.1-14.9-18.1-27.5-18.1-23.9,0-35.9,24.4-35.9,73.2h0Z"/>
      <path class="cls-1" d="M4895.6,259.5h25.9v33h-25.9v-33ZM4895.6,323.1h25.9v181.9h-25.9v-181.9h0Z"/>
      <path class="cls-1" d="M4984.1,450.9c0,11.8,2,21,6.1,27.4,4.2,6.4,12.5,9.6,24.8,9.6,23.3,0,34.9-10.1,34.9-30.4s-2.6-14.4-7.9-18.9c-5.1-4.6-14.3-9.2-27.5-13.9-22.9-8-37.7-16-44.3-24-6.6-8-9.9-18.1-9.9-30.1,0-17.1,5.1-30.1,15.4-38.9s23.1-13.3,38.7-13.3c37.2,0,55.9,18,55.9,53.8h-24.7c0-10.5-2-18.3-6-23.7s-11.7-8.1-23.2-8.1c-19.6,0-29.4,9.3-29.4,27.8s2.3,12.8,6.7,17.6c4.6,4.8,15.6,10.6,33.1,17.2,20.5,7.9,33.9,15.4,40.2,22.8,6.4,7.2,9.6,16.6,9.6,28.2,0,18.2-5.8,32.1-17.4,41.6s-26,14.3-43.3,14.3-31.2-4.5-41.3-13.6c-10-9.2-15.1-21.2-15.1-36.2v-9.1h24.7-.1Z"/>
      <path class="cls-1" d="M5093.6,345.1v-21.9h25.1v-48.7h25.9v48.7h30.7v21.9h-30.7v123.9c0,5.5.7,9.3,2.1,11.2,1.5,1.9,5.2,2.9,11.2,2.9h16.6v21.9h-28.8c-10.6,0-17.7-2.2-21.5-6.4-3.7-4.3-5.6-12-5.6-22.9v-130.7h-25.1,0Z"/>
      <path class="cls-1" d="M5205.1,259.5h25.9v33h-25.9v-33ZM5205.1,323.1h25.9v181.9h-25.9v-181.9h0Z"/>
      <path class="cls-1" d="M5361.9,440.7h24.7c-.5,21.9-5.7,39-15.4,51.1-9.8,12.1-23.4,18.1-41.2,18.1s-36.3-7-46.2-21-14.9-37.9-14.9-71.7,4.9-58.9,14.7-74.8c9.9-16,25.7-24,47.6-24s30.1,5.6,39.7,16.8,14.4,26.1,14.4,44.7h-24.7c0-26.4-9.8-39.6-29.4-39.6s-21.7,5.8-27.2,17.4c-5.5,11.6-8.3,31.6-8.3,60.3s2.8,44.4,8.3,54.6c5.7,10.1,14.4,15.2,26.1,15.2s17.2-3.1,22.2-9.3c5.2-6.2,8.4-18.9,9.6-37.9h0Z"/>
      <path class="cls-1" d="M5439.1,450.9c0,11.8,2,21,6.1,27.4,4.2,6.4,12.5,9.6,24.8,9.6,23.3,0,34.9-10.1,34.9-30.4s-2.6-14.4-7.9-18.9c-5.1-4.6-14.3-9.2-27.5-13.9-22.9-8-37.7-16-44.3-24-6.6-8-9.9-18.1-9.9-30.1,0-17.1,5.1-30.1,15.4-38.9s23.1-13.3,38.7-13.3c37.2,0,55.9,18,55.9,53.8h-24.7c0-10.5-2-18.3-6-23.7s-11.7-8.1-23.2-8.1c-19.6,0-29.4,9.3-29.4,27.8s2.3,12.8,6.7,17.6c4.6,4.8,15.6,10.6,33.1,17.2,20.5,7.9,33.9,15.4,40.2,22.8,6.4,7.2,9.6,16.6,9.6,28.2,0,18.2-5.8,32.1-17.4,41.6s-26,14.3-43.3,14.3-31.2-4.5-41.3-13.6c-10-9.2-15.1-21.2-15.1-36.2v-9.1h24.7-.1Z"/>
      <path class="cls-1" d="M5722.6,259.1c-15.4,26-26.6,51.5-33.3,76.2-6.9,24.7-10.2,52.2-10.2,82.3s3.3,55.6,9.8,80c6.5,24.3,17.2,50.5,31.9,78.5h-17.2c-19.4-31.2-33-58.3-40.5-81.4s-11.4-49.3-11.4-78.5,4.6-57.1,13.7-80.6c9-23.6,21.9-49.1,38.3-76.5h19.1-.2Z"/>
      <path class="cls-1" d="M5741.7,259.1h155.3v24.7h-64v221.3h-27.2v-221.3h-64v-24.7h0Z"/>
      <path class="cls-1" d="M5924.4,259.1h25.9v84.9c11.7-17.1,26.8-25.6,45.4-25.6s26,4,33.3,11.8c7.2,7.9,10.9,19.8,10.9,35.6v139.3h-25.9v-131.9c0-21.9-8.9-32.8-26.6-32.8s-21.4,3.9-27.7,11.6-9.5,16.9-9.5,27.7v125.5h-25.9v-245.9h0v-.2Z"/>
      <path class="cls-1" d="M6081.7,372.2v-6.4c0-31.6,18.1-47.4,54.1-47.4s28.7,4,37.1,11.8c8.6,7.9,12.8,18.3,12.8,31.3v112.9c0,7.8,3.5,11.7,10.6,11.7s3.4,0,5.3-.4v18.7c-3.1,1.3-7,1.9-11.8,1.9-9.4,0-16-2-19.9-6.1-3.7-4.2-5.8-11.3-6.1-21.5-3.9,9.2-9.8,16.6-17.6,22.4-7.8,5.7-16,8.5-24.7,8.5-31.3,0-47.1-17.4-47.1-52.4s9.7-37.7,29-45.8l47.1-19.1c4.2-1.7,7.1-3.7,8.9-6.1,1.7-2.3,2.5-7.1,2.5-14.3,0-13.9-2.5-22.7-7.5-26.5-5.1-3.7-12.3-5.6-21.8-5.6s-17,2-21.1,6.1-6.2,10.5-6.2,19.4v6.4h-23.6v.5ZM6159.8,406.4c-9,5.5-22.7,11.9-40.8,19.1-11.8,4.9-17.8,15.9-17.8,32.8s8.7,29.6,25.9,29.6,17.2-3.5,23.4-10.6c6.2-7.1,9.3-15.7,9.3-25.7v-45.2h0Z"/>
      <path class="cls-1" d="M6233.5,259.5h25.9v33h-25.9v-33ZM6233.5,323.1h25.9v181.9h-25.9v-181.9h0Z"/>
      <path class="cls-1" d="M6306.3,505v-245.9h25.9v245.9h-25.9Z"/>
      <path class="cls-1" d="M6373,372.2v-6.4c0-31.6,18.1-47.4,54.1-47.4s28.7,4,37.1,11.8c8.6,7.9,12.8,18.3,12.8,31.3v112.9c0,7.8,3.5,11.7,10.6,11.7s3.4,0,5.3-.4v18.7c-3.1,1.3-7,1.9-11.8,1.9-9.4,0-16-2-19.9-6.1-3.7-4.2-5.8-11.3-6.1-21.5-3.9,9.2-9.8,16.6-17.6,22.4-7.8,5.7-16,8.5-24.7,8.5-31.3,0-47.1-17.4-47.1-52.4s9.7-37.7,29-45.8l47.1-19.1c4.2-1.7,7.1-3.7,8.9-6.1,1.7-2.3,2.5-7.1,2.5-14.3,0-13.9-2.5-22.7-7.5-26.5-5.1-3.7-12.3-5.6-21.8-5.6s-17,2-21.1,6.1-6.2,10.5-6.2,19.4v6.4h-23.6v.5ZM6451.1,406.4c-9,5.5-22.7,11.9-40.8,19.1-11.8,4.9-17.8,15.9-17.8,32.8s8.7,29.6,25.9,29.6,17.2-3.5,23.4-10.6c6.2-7.1,9.3-15.7,9.3-25.7v-45.2h0Z"/>
      <path class="cls-1" d="M6525,505v-181.9h25.1v20.8c11.7-17.1,27.1-25.6,46.2-25.6s25.1,3.9,32.7,11.7c7.7,7.8,11.6,19.7,11.6,35.7v139.3h-25.9v-131.9c0-21.9-8.9-32.8-26.6-32.8s-19.7,3.7-26.7,11c-7,7.4-10.4,16.8-10.4,28.2v125.5h-25.9v.2-.2Z"/>
      <path class="cls-1" d="M6777.8,344v-84.9h25.9v245.9h-25.1v-25.9c-4.8,10-10.4,17.7-16.8,22.9s-15.7,7.9-28,7.9-30-7-39.4-21c-9.3-14.1-13.9-42-13.9-83.7s4.7-45.8,14.1-62.1c9.4-16.4,22.8-24.7,40.4-24.7s32.2,8.6,42.9,25.6h-.1ZM6707.2,414.7c0,28.3,2.7,47.6,8.1,57.8,5.5,10.2,14.5,15.4,26.9,15.4s19.8-5.1,26.1-15.1c6.3-10.1,9.5-23.5,9.5-40v-23.4c0-24.2-2.8-41.8-8.5-52.7-5.7-11-14.7-16.5-27.1-16.5-23.4,0-35,24.8-35,74.4h0Z"/>
      <path class="cls-1" d="M6862,259.1c16.4,27.5,29.2,52.9,38.3,76.5,9.2,23.6,13.7,50.5,13.7,80.6s-3.8,55.3-11.4,78.5c-7.6,23-21,50.1-40.5,81.4h-17.2c14.7-28,25.4-54.1,31.9-78.5,6.5-24.5,9.8-51.1,9.8-80s-3.4-57.5-10.2-82.3c-6.7-24.7-17.8-50.1-33.3-76.2h19.1-.2Z"/>
      <path class="cls-1" d="M7158,416.7h28l-2.5,29.3c-1.9,19.5-9,35.3-21.3,47.4-12.2,12.1-28,18.1-47.4,18.1s-46.9-9.6-59.1-28.6c-12.1-19.2-18.1-47.4-18.1-84.7v-18.1c0-43,6.3-75,18.9-95.9s32.2-31.3,58.8-31.3,38.5,6.7,51.4,20.1c12.9,13.5,19.4,30.9,19.4,52.2v7h-28c-1.3-36.5-16.1-54.7-44.3-54.7s-26.9,7.4-35.4,22.2c-8.4,14.8-12.6,45.3-12.6,91.4s3.8,55.6,11.4,71.7c7.6,16,19.7,24,36.3,24,25,0,39.2-17,42.7-51.1l1.9-19.1h0Z"/>
      <path class="cls-1" d="M7219.2,407.4c0-28.9,5.4-50.9,16.3-66.1,11-15.3,27.3-22.9,48.9-22.9s36.7,7.8,47.6,23.2c11,15.4,16.5,37,16.5,65s-5,60.3-14.9,77.5c-9.8,17.2-26,25.7-48.7,25.7s-40-7.9-50.3-23.7c-10.2-15.9-15.4-42.2-15.4-78.8h0ZM7246,415.9c0,25,3,43.3,8.9,54.7,6.1,11.6,15.7,17.2,29,17.2s23.7-6.1,29.3-18.1c5.7-12.1,8.5-30.1,8.5-53.9s-3-46.2-8.9-58-15.6-17.6-29.2-17.6-22.5,5.8-28.6,17.2c-6.1,11.6-9.1,31-9.1,58.3h0v.2Z"/>
      <path class="cls-1" d="M7392.6,472.2h29.8v32.8h-29.8v-32.8Z"/>
      <path class="cls-1" d="M7474.6,538.8c10.6-2.4,15.9-13.7,15.9-33.8h-15.9v-33.3h29.8v33c0,26.5-9.9,42.8-29.8,48.9v-14.9h0Z"/>
      <path class="cls-1" d="M7639.7,259.1h27.2v221.3h99.9v24.7h-127.2v-245.9h.1Z"/>
      <path class="cls-1" d="M7779.6,345.1v-21.9h25.1v-48.7h25.9v48.7h30.7v21.9h-30.7v123.9c0,5.5.7,9.3,2.1,11.2,1.5,1.9,5.2,2.9,11.2,2.9h16.6v21.9h-28.8c-10.6,0-17.7-2.2-21.5-6.4-3.7-4.3-5.6-12-5.6-22.9v-130.7h-25.1,0Z"/>
      <path class="cls-1" d="M7980.1,344v-84.9h25.9v245.9h-25.1v-25.9c-4.8,10-10.4,17.7-16.8,22.9s-15.7,7.9-28,7.9-30-7-39.4-21c-9.3-14.1-13.9-42-13.9-83.7s4.7-45.8,14.1-62.1c9.4-16.4,22.8-24.7,40.4-24.7s32.2,8.6,42.9,25.6h-.1ZM7909.6,414.7c0,28.3,2.7,47.6,8.1,57.8,5.5,10.2,14.5,15.4,26.9,15.4s19.8-5.1,26.1-15.1c6.3-10.1,9.5-23.5,9.5-40v-23.4c0-24.2-2.8-41.8-8.5-52.7-5.7-11-14.7-16.5-27.1-16.5-23.4,0-35,24.8-35,74.4h0Z"/>
      <path class="cls-1" d="M8057.5,472.2h29.8v32.8h-29.8v-32.8Z"/>
    </g>
  </g>
</svg>